# xmcd
#
# Track frame offsets: 
#        150
#        13413
#        31367
#        45267
#        62228
#        77566
#        88637
#        110474
#        128180
#        142720
#
# Disc length: 2376 seconds
#
# Revision: 0
# Processed by: cddbd v1.5.2PL0 Copyright (c) Steve Scherf et al.
# Submitted via: ExactAudioCopy v0.95b4
#
DISCID=7909460a
DTITLE=Cookies 'n' Beans - Tales from a Trailor Trash Soul
DYEAR=2007
DGENRE=Country
TTITLE0=Train Train
TTITLE1=Jolene
TTITLE2=I lost it
TTITLE3=Together Again
TTITLE4=Can't let go
TTITLE5=The pain of loving you
TTITLE6=Killing the Blues
TTITLE7=Drunken Angel
TTITLE8=Juanita
TTITLE9=Sin Wagon and Help me make it through the night
EXTD=
EXTT0=
EXTT1=
EXTT2=
EXTT3=
EXTT4=
EXTT5=
EXTT6=
EXTT7=
EXTT8=
EXTT9=
PLAYORDER=
